<svg xmlns="http://www.w3.org/2000/svg" data-svgdocument="" id="_eg90l3bab_1" class="fl-svgdocument" x="0" y="0" viewBox="51.25 136.68 409 222.25">
	<path id="_eg90l3bab_209" transform="matrix(1.4,0,0,1.4,190,152.9)" fill="#7dccab" data-type="circle" data-cx="50" data-cy="50" data-r="50" d="M 50 50 m -50 0 a 50 50 0 1 0 100 0 a 50 50 0 1 0 -100 0"/><path id="_eg90l3bab_128" d="M 8 4 C 5.8 4 4 2.2 4 0 C 4 2.2 2.2 4 0 4 C 2.2 4 4 5.8 4 8 C 4 5.8 5.8 4 8 4 L 8 4 Z" transform="matrix(2.8,0,0,2.8,180.5,143.3)" stroke="#1e252a" stroke-width="2" stroke-linecap="round" fill="#d8c39b" stroke-linejoin="round"/><path id="_eg90l3bab_129" d="M 28.2 44 L 50 44" transform="matrix(2.8,0,0,2.8,180.5,143.3)" stroke="#1e252a" stroke-width="2" stroke-linecap="round" fill="#1e252a"/><path id="_eg90l3bab_130" d="M 8 44 L 21.9 44" stroke="#1e252a" stroke-width="2" transform="matrix(2.8,0,0,2.8,180.5,143.3)" stroke-linecap="round" fill="#1e252a"/><path id="_eg90l3bab_131" d="M 7.7 32 L 4 32" stroke="#1e252a" stroke-width="2" transform="matrix(2.8,0,0,2.8,180.5,143.3)" stroke-linecap="round" fill="#1e252a"/><path id="_eg90l3bab_132" d="M 34 32 L 15 32" stroke="#1e252a" stroke-width="2" stroke-linecap="round" transform="matrix(2.8,0,0,2.8,180.5,143.3)" fill="#1e252a"/><path id="_eg90l3bab_133" d="M 42 38 L 21 38" stroke="#1e252a" stroke-width="2" stroke-linecap="round" transform="matrix(2.8,0,0,2.8,180.5,143.3)" fill="#1e252a"/><path id="_eg90l3bab_134" d="M 30 49 L 13 49" stroke="#1e252a" stroke-width="2" stroke-linecap="round" transform="matrix(2.8,0,0,2.8,180.5,143.3)" fill="#1e252a"/><path id="_eg90l3bab_135" d="M 33 26 L 23 26" stroke="#1e252a" stroke-width="2" stroke-linecap="round" transform="matrix(2.8,0,0,2.8,180.5,143.3)" fill="#1e252a"/><path id="_eg90l3bab_136" d="M 14 26 L 4 26" stroke="#1e252a" stroke-width="2" stroke-linecap="round" transform="matrix(2.8,0,0,2.8,180.5,143.3)" fill="#1e252a"/><path id="_eg90l3bab_137" d="M 32 15 L 22 15" stroke="#1e252a" stroke-width="2" stroke-linecap="round" transform="matrix(2.8,0,0,2.8,180.5,143.3)" fill="#1e252a"/><path id="_eg90l3bab_138" d="M 54 32 L 42 32" stroke="#1e252a" stroke-width="2" stroke-linecap="round" transform="matrix(2.8,0,0,2.8,180.5,143.3)" fill="#1e252a"/><path id="_eg90l3bab_139" d="M 25.6 9 L 13 9" stroke="#1e252a" stroke-width="2" stroke-linecap="round" transform="matrix(2.8,0,0,2.8,180.5,143.3)" fill="#1e252a"/><path id="_eg90l3bab_140" d="M 38 9 L 32 9" stroke="#1e252a" stroke-width="2" stroke-linecap="round" transform="matrix(2.8,0,0,2.8,180.5,143.3)" fill="#1e252a"/><path id="_eg90l3bab_141" d="M 30.3 21 L 53 21" stroke="#1e252a" stroke-width="2" stroke-linecap="round" transform="matrix(2.8,0,0,2.8,180.5,143.3)" fill="#1e252a"/><path id="_eg90l3bab_142" d="M 5 21 L 23.7 21" transform="matrix(2.8,0,0,2.8,180.5,143.3)" fill="#1e252a" stroke="#1e252a" stroke-width="2" stroke-linecap="round"/><path id="_eg90l3bab_152" d="M 40 68.5 c -15.7 0 -28.5 -12.8 -28.5 -28.5 S 24.3 11.5 40 11.5 S 68.5 24.3 68.5 40 S 55.7 68.5 40 68.5 z M 40 13.5 c -14.6 0 -26.5 11.9 -26.5 26.5 S 25.4 66.5 40 66.5 S 66.5 54.6 66.5 40 S 54.6 13.5 40 13.5 z" transform="matrix(2.6,0,0,2.6,155.9,119.9)" fill="#1e252a"/><path id="_eg90l3bab_123" d="M 53 52 C 53 52.6 52.6 53 52 53 C 51.4 53 51 52.6 51 52 C 51 51.4 51.4 51 52 51 C 52.6 51 53 51.4 53 52" transform="matrix(2.8,0,0,2.8,180.5,143.3)" stroke="none" fill="#1e252a" stroke-width="1"/><path id="_eg90l3bab_124" d="M 57 9 C 57 9.6 56.6 10 56 10 C 55.4 10 55 9.6 55 9 C 55 8.4 55.4 8 56 8 C 56.6 8 57 8.4 57 9" stroke="none" transform="matrix(2.8,0,0,2.8,180.5,143.3)" fill="#1e252a" stroke-width="1"/><path id="_eg90l3bab_125" d="M 7 56 C 7 56.6 6.6 57 6 57 C 5.4 57 5 56.6 5 56 C 5 55.4 5.4 55 6 55 C 6.6 55 7 55.4 7 56" stroke="none" transform="matrix(2.8,0,0,2.8,180.5,143.3)" fill="#1e252a" stroke-width="1"/><path id="_eg90l3bab_126" d="M 50 8 C 50 11.3 47.3 14 44 14 C 40.7 14 38 11.3 38 8 C 38 4.7 40.7 2 44 2 C 47.3 2 50 4.7 50 8 L 50 8 Z" transform="matrix(2.8,0,0,2.8,180.5,143.3)" stroke="#1e252a" stroke-width="2" fill="#d8c39b"/><path id="_eg90l3bab_127" d="M 43 53 C 43 55.2 41.2 57 39 57 C 36.8 57 35 55.2 35 53 C 35 50.8 36.8 49 39 49 C 41.2 49 43 50.8 43 53 L 43 53 Z" stroke="#1e252a" stroke-width="2" transform="matrix(2.8,0,0,2.8,180.5,143.3)" fill="#d8c39b"/><path text="Titanic Fitness" fill="#1e252a" transform="matrix(1.2,0,0,1.2,256,358.2)" space="preserve" text-anchor="middle" offset="0.5" font-scale="contain" font-size="48" font-family="'Fredoka One'" data-fl-textpath="" id="_eg90l3bab_225" font-weight="400" font-style="normal" d="M -167.1 -35.2 L -167.1 -35.2 L -140.4 -35.2 Q -138.9 -35.2 -138.2 -34.9 Q -137.5 -34.5 -137.2 -33.7 Q -137 -33 -137 -31.7 Q -137 -30.5 -137.2 -29.7 Q -137.5 -29 -138 -28.7 L -138 -28.7 Q -138.9 -28.3 -140.5 -28.3 L -140.5 -28.3 L -149.7 -28.3 L -149.7 -4.1 Q -149.7 -3 -149.7 -2.5 Q -149.8 -2 -150.2 -1.3 Q -150.5 -0.6 -151.4 -0.3 Q -152.3 0 -153.8 0 Q -155.3 0 -156.2 -0.3 Q -157.1 -0.6 -157.5 -1.3 Q -157.8 -2 -157.9 -2.5 Q -158 -3.1 -158 -4.2 L -158 -4.2 L -158 -28.3 L -167.2 -28.3 Q -168.7 -28.3 -169.4 -28.6 Q -170.2 -29 -170.4 -29.8 Q -170.6 -30.5 -170.6 -31.8 Q -170.6 -33 -170.4 -33.8 Q -170.2 -34.5 -169.6 -34.8 L -169.6 -34.8 Q -168.7 -35.2 -167.1 -35.2 Z M -134.4 -4.2 L -134.4 -21.1 Q -134.4 -22.2 -134.3 -22.7 Q -134.2 -23.3 -133.9 -24 L -133.9 -24 Q -133.2 -25.3 -130.1 -25.3 L -130.1 -25.3 Q -127.8 -25.3 -126.9 -24.4 L -126.9 -24.4 Q -126.1 -23.8 -126 -22.4 L -126 -22.4 Q -126 -21.9 -126 -21 L -126 -21 L -126 -4.2 Q -126 -3.1 -126 -2.5 Q -126.1 -2 -126.5 -1.3 L -126.5 -1.3 Q -127.1 0 -130.2 0 L -130.2 0 Q -133.2 0 -133.9 -1.3 L -133.9 -1.3 Q -134.2 -2 -134.3 -2.5 Q -134.4 -3.1 -134.4 -4.2 L -134.4 -4.2 Z M -126.5 -30 Q -126.8 -29.3 -127.7 -29 Q -128.6 -28.7 -130.2 -28.7 Q -131.7 -28.7 -132.6 -29 Q -133.5 -29.3 -133.9 -30 Q -134.2 -30.7 -134.3 -31.3 Q -134.4 -31.8 -134.4 -32.9 Q -134.4 -34 -134.3 -34.6 Q -134.2 -35.1 -133.9 -35.8 L -133.9 -35.8 Q -133.2 -37.1 -130.1 -37.1 L -130.1 -37.1 Q -127.1 -37.1 -126.5 -35.8 L -126.5 -35.8 Q -126.1 -35.1 -126 -34.5 Q -126 -34 -126 -32.9 Q -126 -31.8 -126 -31.2 Q -126.1 -30.7 -126.5 -30 Z M -107.4 -16.8 L -107.4 -16.8 L -110.5 -17 L -110.5 -10.4 Q -110.5 -9.1 -110.1 -8.5 Q -109.7 -7.9 -108.6 -7.9 Q -107.5 -7.9 -106.9 -7.8 Q -106.3 -7.8 -105.6 -7.4 L -105.6 -7.4 Q -104.5 -6.8 -104.5 -4.2 L -104.5 -4.2 Q -104.5 -1.1 -105.8 -0.5 L -105.8 -0.5 Q -106.6 -0.1 -107.1 -0.1 Q -107.7 0 -108.7 0 L -108.7 0 Q -113.7 0 -116.3 -2.3 Q -118.9 -4.5 -118.9 -9.9 L -118.9 -9.9 L -118.9 -17 Q -119.8 -16.9 -120.9 -16.9 Q -121.9 -16.9 -122.6 -17.7 Q -123.3 -18.5 -123.3 -20.4 Q -123.3 -22.4 -123.1 -23.3 Q -122.8 -24.2 -122.4 -24.6 L -122.4 -24.6 Q -121.6 -25.2 -120.5 -25.2 L -120.5 -25.2 L -118.9 -25 L -118.9 -29.9 Q -118.9 -31.1 -118.8 -31.6 Q -118.8 -32.1 -118.4 -32.7 L -118.4 -32.7 Q -117.7 -33.9 -114.7 -33.9 L -114.7 -33.9 Q -111.4 -33.9 -110.8 -32.2 L -110.8 -32.2 Q -110.5 -31.4 -110.5 -29.7 L -110.5 -29.7 L -110.5 -25 Q -108.4 -25.2 -107.4 -25.2 Q -106.3 -25.2 -105.7 -25.1 Q -105.2 -25.1 -104.5 -24.7 L -104.5 -24.7 Q -103.2 -24.1 -103.2 -21 L -103.2 -21 Q -103.2 -17.9 -104.5 -17.3 L -104.5 -17.3 Q -105.2 -16.9 -105.8 -16.9 Q -106.3 -16.8 -107.4 -16.8 Z M -84.1 -22.6 L -84.1 -22.6 Q -83.9 -25.3 -80.3 -25.3 L -80.3 -25.3 Q -78.5 -25.3 -77.6 -25 Q -76.7 -24.7 -76.3 -24 Q -75.9 -23.3 -75.9 -22.7 Q -75.8 -22.2 -75.8 -21.1 L -75.8 -21.1 L -75.8 -4.3 Q -75.8 -3.2 -75.9 -2.6 Q -75.9 -2.1 -76.3 -1.3 L -76.3 -1.3 Q -76.9 -0.1 -79.6 -0.1 Q -82.2 -0.1 -83.1 -0.7 Q -83.9 -1.4 -84.1 -2.6 L -84.1 -2.6 Q -85.9 -0.1 -90 -0.1 Q -94.2 -0.1 -97.7 -3.9 Q -101.3 -7.7 -101.3 -12.7 Q -101.3 -17.7 -97.7 -21.5 Q -94.1 -25.3 -89.9 -25.3 L -89.9 -25.3 Q -88.2 -25.3 -86.9 -24.7 Q -85.5 -24.1 -85 -23.6 Q -84.5 -23.1 -84.1 -22.6 Z M -92.9 -12.6 Q -92.9 -11 -91.6 -9.8 Q -90.4 -8.5 -88.6 -8.5 Q -86.8 -8.5 -85.7 -9.8 Q -84.5 -11.1 -84.5 -12.7 Q -84.5 -14.2 -85.6 -15.6 Q -86.7 -16.9 -88.6 -16.9 Q -90.5 -16.9 -91.7 -15.6 Q -92.9 -14.2 -92.9 -12.6 Z M -57.9 -25.3 L -57.9 -25.3 Q -53.1 -25.3 -49.9 -21.6 Q -46.7 -17.9 -46.7 -12.7 L -46.7 -12.7 L -46.7 -4.2 Q -46.7 -3.1 -46.8 -2.6 Q -46.9 -2 -47.2 -1.3 L -47.2 -1.3 Q -47.9 -0.1 -50.9 -0.1 L -50.9 -0.1 Q -54.3 -0.1 -54.9 -1.8 L -54.9 -1.8 Q -55.2 -2.6 -55.2 -4.3 L -55.2 -4.3 L -55.2 -12.7 Q -55.2 -14.7 -56.3 -15.8 Q -57.4 -16.9 -59.3 -16.9 Q -61.2 -16.9 -62.4 -15.7 Q -63.6 -14.6 -63.6 -12.7 L -63.6 -12.7 L -63.6 -4.2 Q -63.6 -3.1 -63.6 -2.6 Q -63.7 -2 -64.1 -1.3 L -64.1 -1.3 Q -64.7 -0.1 -67.8 -0.1 L -67.8 -0.1 Q -70.8 -0.1 -71.5 -1.3 L -71.5 -1.3 Q -71.8 -2.1 -71.9 -2.6 Q -72 -3.2 -72 -4.3 L -72 -4.3 L -72 -21.3 Q -72 -22.3 -71.9 -22.9 Q -71.8 -23.4 -71.4 -24.1 L -71.4 -24.1 Q -70.8 -25.3 -67.7 -25.3 L -67.7 -25.3 Q -64.8 -25.3 -64.1 -24.2 L -64.1 -24.2 Q -63.7 -23.4 -63.7 -22.2 L -63.7 -22.2 Q -63.5 -22.6 -62.8 -23.2 Q -62.1 -23.8 -61.5 -24.2 L -61.5 -24.2 Q -59.9 -25.3 -57.9 -25.3 Z M -42.9 -4.2 L -42.9 -21.1 Q -42.9 -22.2 -42.8 -22.7 Q -42.7 -23.3 -42.4 -24 L -42.4 -24 Q -41.7 -25.3 -38.6 -25.3 L -38.6 -25.3 Q -36.3 -25.3 -35.4 -24.4 L -35.4 -24.4 Q -34.6 -23.8 -34.5 -22.4 L -34.5 -22.4 Q -34.5 -21.9 -34.5 -21 L -34.5 -21 L -34.5 -4.2 Q -34.5 -3.1 -34.5 -2.5 Q -34.6 -2 -35 -1.3 L -35 -1.3 Q -35.6 0 -38.7 0 L -38.7 0 Q -41.7 0 -42.4 -1.3 L -42.4 -1.3 Q -42.7 -2 -42.8 -2.5 Q -42.9 -3.1 -42.9 -4.2 L -42.9 -4.2 Z M -35 -30 Q -35.3 -29.3 -36.2 -29 Q -37.2 -28.7 -38.7 -28.7 Q -40.2 -28.7 -41.1 -29 Q -42 -29.3 -42.4 -30 Q -42.7 -30.7 -42.8 -31.3 Q -42.9 -31.8 -42.9 -32.9 Q -42.9 -34 -42.8 -34.6 Q -42.7 -35.1 -42.4 -35.8 L -42.4 -35.8 Q -41.7 -37.1 -38.6 -37.1 L -38.6 -37.1 Q -35.6 -37.1 -35 -35.8 L -35 -35.8 Q -34.6 -35.1 -34.5 -34.5 Q -34.5 -34 -34.5 -32.9 Q -34.5 -31.8 -34.5 -31.2 Q -34.6 -30.7 -35 -30 Z M -22.7 -12.7 Q -22.7 -10.6 -21.4 -9.5 Q -20 -8.3 -18.5 -8.3 Q -17 -8.3 -15.7 -9.2 Q -14.4 -10.1 -13.5 -10.1 L -13.5 -10.1 Q -12.1 -10.1 -10 -7.6 L -10 -7.6 Q -8.9 -6.2 -8.9 -5.1 L -8.9 -5.1 Q -8.9 -3.3 -11.6 -1.7 L -11.6 -1.7 Q -14.3 0.2 -18.3 0.2 L -18.3 0.2 Q -22.8 0.2 -26.9 -3 L -26.9 -3 Q -28.8 -4.5 -30.1 -7.1 Q -31.3 -9.7 -31.3 -12.7 Q -31.3 -15.8 -30.1 -18.4 Q -28.8 -20.9 -26.9 -22.4 L -26.9 -22.4 Q -22.9 -25.6 -18.4 -25.6 L -18.4 -25.6 Q -16.6 -25.6 -14.8 -25.1 Q -13.1 -24.6 -12.3 -24.1 L -12.3 -24.1 L -11.5 -23.6 Q -10.7 -23 -10.2 -22.7 L -10.2 -22.7 Q -8.9 -21.7 -8.9 -20.5 Q -8.9 -19.3 -9.9 -17.8 L -9.9 -17.8 Q -11.7 -15.1 -13.2 -15.1 L -13.2 -15.1 Q -14.2 -15.1 -15.8 -16.2 L -15.8 -16.2 Q -16.7 -17 -18.3 -17 Q -19.9 -17 -21.3 -15.8 Q -22.7 -14.7 -22.7 -12.7 Z M 10.7 -35.2 L 29.6 -35.2 Q 30.7 -35.2 31.3 -35.1 Q 31.8 -35 32.5 -34.7 Q 33.2 -34.3 33.5 -33.4 Q 33.8 -32.5 33.8 -30.9 Q 33.8 -29.4 33.5 -28.5 Q 33.2 -27.6 32.5 -27.2 Q 31.8 -26.8 31.2 -26.8 Q 30.7 -26.7 29.5 -26.7 L 29.5 -26.7 L 14.8 -26.7 L 14.8 -21.8 L 24.3 -21.8 Q 25.4 -21.8 26 -21.8 Q 26.5 -21.7 27.3 -21.3 L 27.3 -21.3 Q 28.5 -20.6 28.5 -17.5 L 28.5 -17.5 Q 28.5 -14.2 26.7 -13.5 L 26.7 -13.5 Q 25.9 -13.3 24.2 -13.3 L 24.2 -13.3 L 14.8 -13.3 L 14.8 -4.2 Q 14.8 -3.1 14.8 -2.5 Q 14.7 -2 14.3 -1.3 L 14.3 -1.3 Q 13.6 0 10.6 0 L 10.6 0 Q 7.2 0 6.6 -1.8 L 6.6 -1.8 Q 6.3 -2.6 6.3 -4.3 L 6.3 -4.3 L 6.3 -31 Q 6.3 -33.4 7.2 -34.3 Q 8.2 -35.2 10.7 -35.2 L 10.7 -35.2 Z M 36 -4.2 L 36 -21.1 Q 36 -22.2 36 -22.7 Q 36.1 -23.3 36.4 -24 L 36.4 -24 Q 37.1 -25.3 40.2 -25.3 L 40.2 -25.3 Q 42.5 -25.3 43.4 -24.4 L 43.4 -24.4 Q 44.3 -23.8 44.3 -22.4 L 44.3 -22.4 Q 44.4 -21.9 44.4 -21 L 44.4 -21 L 44.4 -4.2 Q 44.4 -3.1 44.3 -2.5 Q 44.2 -2 43.8 -1.3 L 43.8 -1.3 Q 43.2 0 40.1 0 L 40.1 0 Q 37.1 0 36.4 -1.3 L 36.4 -1.3 Q 36.1 -2 36 -2.5 Q 36 -3.1 36 -4.2 L 36 -4.2 Z M 43.9 -30 Q 43.5 -29.3 42.6 -29 Q 41.7 -28.7 40.2 -28.7 Q 38.6 -28.7 37.7 -29 Q 36.8 -29.3 36.5 -30 Q 36.1 -30.7 36 -31.3 Q 36 -31.8 36 -32.9 Q 36 -34 36 -34.6 Q 36.1 -35.1 36.4 -35.8 L 36.4 -35.8 Q 37.1 -37.1 40.2 -37.1 L 40.2 -37.1 Q 43.2 -37.1 43.8 -35.8 L 43.8 -35.8 Q 44.2 -35.1 44.3 -34.5 Q 44.4 -34 44.4 -32.9 Q 44.4 -31.8 44.3 -31.2 Q 44.2 -30.7 43.9 -30 Z M 62.9 -16.8 L 62.9 -16.8 L 59.8 -17 L 59.8 -10.4 Q 59.8 -9.1 60.2 -8.5 Q 60.6 -7.9 61.7 -7.9 Q 62.8 -7.9 63.4 -7.8 Q 64 -7.8 64.7 -7.4 L 64.7 -7.4 Q 65.8 -6.8 65.8 -4.2 L 65.8 -4.2 Q 65.8 -1.1 64.5 -0.5 L 64.5 -0.5 Q 63.7 -0.1 63.2 -0.1 Q 62.6 0 61.6 0 L 61.6 0 Q 56.6 0 54 -2.3 Q 51.4 -4.5 51.4 -9.9 L 51.4 -9.9 L 51.4 -17 Q 50.5 -16.9 49.4 -16.9 Q 48.4 -16.9 47.7 -17.7 Q 47 -18.5 47 -20.4 Q 47 -22.4 47.2 -23.3 Q 47.5 -24.2 47.9 -24.6 L 47.9 -24.6 Q 48.7 -25.2 49.8 -25.2 L 49.8 -25.2 L 51.4 -25 L 51.4 -29.9 Q 51.4 -31.1 51.5 -31.6 Q 51.6 -32.1 51.9 -32.7 L 51.9 -32.7 Q 52.6 -33.9 55.6 -33.9 L 55.6 -33.9 Q 58.9 -33.9 59.5 -32.2 L 59.5 -32.2 Q 59.8 -31.4 59.8 -29.7 L 59.8 -29.7 L 59.8 -25 Q 61.9 -25.2 63 -25.2 Q 64 -25.2 64.6 -25.1 Q 65.1 -25.1 65.9 -24.7 L 65.9 -24.7 Q 67.1 -24.1 67.1 -21 L 67.1 -21 Q 67.1 -17.9 65.8 -17.3 L 65.8 -17.3 Q 65.1 -16.9 64.5 -16.9 Q 64 -16.8 62.9 -16.8 Z M 83.8 -25.3 L 83.8 -25.3 Q 88.6 -25.3 91.8 -21.6 Q 95 -17.9 95 -12.7 L 95 -12.7 L 95 -4.2 Q 95 -3.1 94.9 -2.6 Q 94.8 -2 94.5 -1.3 L 94.5 -1.3 Q 93.8 -0.1 90.8 -0.1 L 90.8 -0.1 Q 87.4 -0.1 86.8 -1.8 L 86.8 -1.8 Q 86.5 -2.6 86.5 -4.3 L 86.5 -4.3 L 86.5 -12.7 Q 86.5 -14.7 85.4 -15.8 Q 84.3 -16.9 82.4 -16.9 Q 80.5 -16.9 79.3 -15.7 Q 78.1 -14.6 78.1 -12.7 L 78.1 -12.7 L 78.1 -4.2 Q 78.1 -3.1 78.1 -2.6 Q 78 -2 77.6 -1.3 L 77.6 -1.3 Q 77 -0.1 73.9 -0.1 L 73.9 -0.1 Q 70.9 -0.1 70.2 -1.3 L 70.2 -1.3 Q 69.9 -2.1 69.8 -2.6 Q 69.7 -3.2 69.7 -4.3 L 69.7 -4.3 L 69.7 -21.3 Q 69.7 -22.3 69.8 -22.9 Q 69.9 -23.4 70.3 -24.1 L 70.3 -24.1 Q 70.9 -25.3 74 -25.3 L 74 -25.3 Q 76.9 -25.3 77.6 -24.2 L 77.6 -24.2 Q 78 -23.4 78 -22.2 L 78 -22.2 Q 78.2 -22.6 78.9 -23.2 Q 79.6 -23.8 80.2 -24.2 L 80.2 -24.2 Q 81.8 -25.3 83.8 -25.3 Z M 123.2 -15.7 Q 123.2 -12.7 121.8 -11.3 Q 120.3 -9.9 118.5 -9.9 L 118.5 -9.9 L 107.1 -9.9 Q 107.1 -8.5 108.7 -7.6 Q 110.3 -6.7 111.9 -6.7 L 111.9 -6.7 Q 114.7 -6.7 116.3 -7.3 L 116.3 -7.3 L 116.8 -7.5 Q 117.9 -8 118.7 -8 L 118.7 -8 Q 120.2 -8 121.3 -5.9 L 121.3 -5.9 Q 122 -4.6 122 -3.6 L 122 -3.6 Q 122 0.6 111.7 0.6 L 111.7 0.6 Q 108.2 0.6 105.4 -0.6 Q 102.7 -1.8 101.1 -3.8 L 101.1 -3.8 Q 98.1 -7.7 98.1 -12.5 L 98.1 -12.5 Q 98.1 -18.6 102 -22.2 Q 105.9 -25.8 111.8 -25.8 L 111.8 -25.8 Q 118.5 -25.8 121.6 -21.1 L 121.6 -21.1 Q 123.2 -18.6 123.2 -15.7 Z M 107 -14.3 L 113.1 -14.3 Q 114.9 -14.3 114.9 -15.8 L 114.9 -15.8 Q 114.9 -16.9 114.1 -17.6 Q 113.2 -18.2 111.7 -18.2 Q 110.1 -18.2 108.6 -17 Q 107 -15.7 107 -14.3 L 107 -14.3 Z M 126.5 -2.3 L 126.5 -2.3 Q 125.6 -2.8 125.6 -4.1 Q 125.6 -5.3 127.4 -7.9 L 127.4 -7.9 Q 128 -8.7 129.1 -8.7 Q 130.3 -8.7 132.3 -7.5 Q 134.4 -6.3 136 -6.3 L 136 -6.3 Q 138.9 -6.3 138.9 -7.5 L 138.9 -7.5 Q 138.9 -8.4 135.7 -8.8 L 135.7 -8.8 Q 132.7 -9.3 129.7 -11.1 L 129.7 -11.1 Q 128.3 -11.9 127.4 -13.8 Q 126.5 -15.7 126.5 -18.2 L 126.5 -18.2 Q 126.5 -25.8 136.9 -25.8 L 136.9 -25.8 Q 140.3 -25.8 143.9 -24.1 L 143.9 -24.1 Q 145.6 -23.4 145.6 -22.2 Q 145.6 -21.1 144.5 -19.4 Q 143.5 -17.7 142.4 -17.7 L 142.4 -17.7 Q 141.8 -17.7 140.2 -18.4 Q 138.7 -19.1 136.8 -19.1 L 136.8 -19.1 Q 134 -19.1 134 -18.1 L 134 -18.1 Q 134 -16.7 137.3 -16.2 L 137.3 -16.2 Q 140.4 -15.9 143.4 -14.4 L 143.4 -14.4 Q 144.8 -13.7 145.8 -12.1 Q 146.7 -10.4 146.7 -7.9 Q 146.7 -5.4 145.8 -3.7 Q 144.8 -1.9 143.1 -1.1 L 143.1 -1.1 Q 140.1 0.4 135.4 0.4 Q 130.8 0.4 126.5 -2.3 Z M 150 -2.3 L 150 -2.3 Q 149.1 -2.8 149.1 -4.1 Q 149.1 -5.3 150.9 -7.9 L 150.9 -7.9 Q 151.4 -8.7 152.6 -8.7 Q 153.8 -8.7 155.8 -7.5 Q 157.8 -6.3 159.5 -6.3 L 159.5 -6.3 Q 162.4 -6.3 162.4 -7.5 L 162.4 -7.5 Q 162.4 -8.4 159.2 -8.8 L 159.2 -8.8 Q 156.1 -9.3 153.2 -11.1 L 153.2 -11.1 Q 151.8 -11.9 150.9 -13.8 Q 149.9 -15.7 149.9 -18.2 L 149.9 -18.2 Q 149.9 -25.8 160.4 -25.8 L 160.4 -25.8 Q 163.8 -25.8 167.4 -24.1 L 167.4 -24.1 Q 169.1 -23.4 169.1 -22.2 Q 169.1 -21.1 168 -19.4 Q 166.9 -17.7 165.8 -17.7 L 165.8 -17.7 Q 165.3 -17.7 163.7 -18.4 Q 162.1 -19.1 160.3 -19.1 L 160.3 -19.1 Q 157.5 -19.1 157.5 -18.1 L 157.5 -18.1 Q 157.5 -16.7 160.7 -16.2 L 160.7 -16.2 Q 163.9 -15.9 166.9 -14.4 L 166.9 -14.4 Q 168.3 -13.7 169.2 -12.1 Q 170.2 -10.4 170.2 -7.9 Q 170.2 -5.4 169.2 -3.7 Q 168.3 -1.9 166.6 -1.1 L 166.6 -1.1 Q 163.5 0.4 158.9 0.4 Q 154.3 0.4 150 -2.3 Z">
	</path></svg>